<svg id="icons" enable-background="new 0 0 64 64" height="512" viewBox="0 0 64 64" width="512" xmlns="http://www.w3.org/2000/svg"><path d="m32 18.001c3.309 0 6-2.691 6-6s-2.691-6-6-6-6 2.691-6 6 2.691 6 6 6zm0-10c2.206 0 4 1.794 4 4s-1.794 4-4 4-4-1.794-4-4 1.794-4 4-4z"/><path d="m32 11.001c.552 0 1 .448 1 1 0 .553.447 1 1 1s1-.447 1-1c0-1.654-1.346-3-3-3-.553 0-1 .447-1 1s.447 1 1 1z"/><path d="m32 53.005c5.514 0 10-4.486 10-10v-4c0-5.514-4.486-10-10-10s-10 4.486-10 10v4c0 5.514 4.486 10 10 10zm0-2c-3.545 0-6.555-2.32-7.602-5.52 1.836 2.149 4.56 3.52 7.602 3.52s5.766-1.37 7.602-3.52c-1.047 3.2-4.057 5.52-7.602 5.52zm0-20c4.411 0 8 3.589 8 8s-3.589 8-8 8-8-3.589-8-8 3.589-8 8-8z"/><path d="m43 0h-22c-2.757 0-5 2.243-5 5v4.004 45.992 4.004c0 2.757 2.243 5 5 5h22c2.757 0 5-2.243 5-5v-4.004-45.992-4.004c0-2.757-2.243-5-5-5zm-25 24.001h28v30.995c0 1.654-1.346 3-3 3h-22c-1.654 0-3-1.346-3-3zm0-19.001c0-1.654 1.346-3 3-3h22c1.654 0 3 1.346 3 3v4.004 12.997h-28v-12.997zm25 57h-22c-1.654 0-3-1.346-3-3v-.029c.838.635 1.87 1.025 3 1.025h22c1.13 0 2.162-.391 3-1.025v.029c0 1.654-1.346 3-3 3z"/><path d="m28 42.998h3c0 .553.447 1 1 1s1-.447 1-1h3c.553 0 1-.447 1-1s-.447-1-1-1v-3.001c0-1.858-1.279-3.411-3-3.858v-.142c0-.553-.447-1-1-1s-1 .447-1 1v.142c-1.721.447-3 2-3 3.858v3.001c-.553 0-1 .447-1 1s.447 1 1 1zm2-5.001c0-1.103.897-2 2-2s2 .897 2 2v3.001h-4z"/></svg>